Poster: 
http://imgr.us/images/br4ia2386iwurg7ocffa.jpg

Info:
V: RUSSiAN
A: Jinx filtered by INSPiRAL [fine, clean audio].

IMDB: http://www.imdb.com/title/tt1922777/

Format : AVI
Format/Info : Audio Video Interleave
File size : 702 MiB
Duration : 1h 45mn
Overall bit rate : 934 Kbps
Writing application : VirtualDubMod 1.5.10.2 (build 2542/release)
Writing library : VirtualDub build 32817/release

Video
ID : 0
Format : MPEG-4 Visual
Format profile : Advanced Simple@L5
Format settings, BVOP : 2
Format settings, QPel : No
Format settings, GMC : No warppoints
Format settings, Matrix : Default (MPEG)
Codec ID : XVID
Codec ID/Hint : XviD
Duration : 1h 45mn
Bit rate : 797 Kbps
Width : 640 pixels
Height : 272 pixels
Display aspect ratio : 2.35:1
Frame rate : 25.000 fps
Color space : YUV
Chroma subsampling : 4:2:0
Bit depth : 8 bits
Scan type : Progressive
Compression mode : Lossy
Bits/(Pixel*Frame) : 0.183
Stream size : 598 MiB (85%)
Writing library : XviD 1.2.1 (UTC 2008-12-04)

Audio
ID : 1
Format : MPEG Audio
Format version : Version 1
Format profile : Layer 3
Codec ID : 55
Codec ID/Hint : MP3
Duration : 1h 45mn
Bit rate mode : Constant
Bit rate : 128 Kbps
Channel(s) : 2 channels
Sampling rate : 48.0 KHz
Compression mode : Lossy
Stream size : 96.2 MiB (14%)
Alignment : Split accross interleaves
Interleave, duration : 40 ms (1.00 video frame)
Interleave, preload duration : 500 ms

Screens: 
http://imgr.us/images/fbtxyn7pcim7tuqkapvo.png 
http://imgr.us/images/iqjeletgrup5b5aot140.png 
http://imgr.us/images/kqtd20lxk95sw86pben6.png